<?xml version="1.0" encoding="UTF-8"?> <svg xmlns="http://www.w3.org/2000/svg" viewBox="0 0 63.6 17.6"><g id="logo-lunes" transform="translate(0.3 0.3)"><rect id="logo-lunes_background" data-name="logo-lunes background" fill="rgba(0,0,0,0)"></rect><g id="Group_9" data-name="Group 9"><path id="Stroke_3" data-name="Stroke 3" d="M3.706,15.4h3.8q.469,0,.469.8t-.469.8h-3.8a3.682,3.682,0,0,1-2.862-.947A4.554,4.554,0,0,1,0,12.984V.525Q0,0,.938,0t.938.525V12.984a3.212,3.212,0,0,0,.41,1.871A1.662,1.662,0,0,0,3.706,15.4Z" fill="#fff" stroke="#fff" stroke-miterlimit="10" stroke-width="0.6"></path><path id="Stroke_7" data-name="Stroke 7" d="M9.57.541V10.858A3.16,3.16,0,0,1,8.255,13.69a6.154,6.154,0,0,1-3.481.882A6.1,6.1,0,0,1,1.3,13.69,3.17,3.17,0,0,1,0,10.858V.541Q0,0,.884,0t.884.541V11.093q0,1.833,3.017,1.833T7.8,11.093V.541Q7.8,0,8.686,0T9.57.541Z" transform="translate(10.367 2.429)" fill="#fff" stroke="#fff" stroke-miterlimit="10" stroke-width="0.6"></path><path id="Stroke_11" data-name="Stroke 11" d="M9.57,3.713V14.031q0,.541-.884.541T7.8,14.031V3.478q0-1.833-3.017-1.833T1.768,3.478V14.031q0,.541-.884.541T0,14.031V3.713A3.17,3.17,0,0,1,1.3.882,6.1,6.1,0,0,1,4.774,0,6.151,6.151,0,0,1,8.255.882,3.161,3.161,0,0,1,9.57,3.713Z" transform="translate(24.722 2.429)" fill="#fff" stroke="#fff" stroke-miterlimit="10" stroke-width="0.6"></path><path id="Stroke_15" data-name="Stroke 15" d="M4.763,14.571a6.135,6.135,0,0,1-3.441-.879A3.1,3.1,0,0,1,0,10.917V3.655A3.043,3.043,0,0,1,1.4.868,6.865,6.865,0,0,1,5.047,0,5.735,5.735,0,0,1,8.434.833,3.227,3.227,0,0,1,9.569,3.608V4.3a3.746,3.746,0,0,1-.764,2.706,4.788,4.788,0,0,1-2.8.949L1.748,8.4v2.753c0,1.2.956,1.8,2.841,1.8,2.145,0,3.233-.529,3.233-1.573V10.5c0-.353.294-.532.874-.532s.873.179.873.532v.648a2.957,2.957,0,0,1-1.2,2.567A6.249,6.249,0,0,1,4.763,14.571ZM4.785,1.619c-2.015,0-3.037.607-3.037,1.8V6.776l4.108-.439a2.59,2.59,0,0,0,1.606-.555,2.313,2.313,0,0,0,.36-1.48V3.423C7.822,2.226,6.8,1.619,4.785,1.619Z" transform="translate(39.076 2.429)" fill="#4cd566" stroke="#4cd566" stroke-miterlimit="10" stroke-width="0.6"></path><path id="Stroke_19" data-name="Stroke 19" d="M7.753,4.348v-.9q0-1.827-2.858-1.827A4.2,4.2,0,0,0,2.9,2.035a1.393,1.393,0,0,0-.775,1.319v.509a2.847,2.847,0,0,0,.31,1.631,2.536,2.536,0,0,0,1.329.636l1.927.509q2.747.74,3.256,1.434a3.782,3.782,0,0,1,.62,2.267v.833a2.794,2.794,0,0,1-1.341,2.6,6.706,6.706,0,0,1-3.466.8q-3.456,0-4.386-1.827A4.152,4.152,0,0,1,0,10.894v-.74a.414.414,0,0,1,.2-.4,1.613,1.613,0,0,1,.687-.1q.864,0,.864.578v1.04a1.34,1.34,0,0,0,.775,1.307,5.267,5.267,0,0,0,2.26.382q3.035,0,3.035-1.619V10.108A1.312,1.312,0,0,0,7.3,9a5.569,5.569,0,0,0-1.783-.74l-1.95-.509A5.238,5.238,0,0,1,.986,6.534a4.387,4.387,0,0,1-.61-2.741V3.516A3.114,3.114,0,0,1,1.639.833,5.589,5.589,0,0,1,4.851,0Q9.5,0,9.5,3.608v.81q0,.486-.875.486T7.753,4.348Z" transform="translate(53.43 2.429)" fill="#fff" stroke="#fff" stroke-miterlimit="10" stroke-width="0.6"></path></g></g></svg> 